<svg xmlns="http://www.w3.org/2000/svg" xmlns:xlink="http://www.w3.org/1999/xlink" width="202.018" height="29.17" viewBox="0 0 202.018 29.17">
  <defs>
    <clipPath id="clip-path">
      <rect id="Rectangle_142" data-name="Rectangle 142" width="202.018" height="29.17" fill="none"/>
    </clipPath>
  </defs>
  <g id="logo" transform="translate(0 0)">
    <g id="Group_133" data-name="Group 133" transform="translate(0 0)" clip-path="url(#clip-path)">
      <path id="Path_328" data-name="Path 328" d="M125.576,13.6h12.807v.335c0,1.883-.252,7.742-4.1,11.551-2.888,2.888-6.445,3.683-9.919,3.683s-7.073-.712-10.128-3.767a14.972,14.972,0,0,1-4.143-10.756,14.262,14.262,0,0,1,4.1-10.379A14.892,14.892,0,0,1,125.2,0a13.521,13.521,0,0,1,6.446,1.465,13.139,13.139,0,0,1,5.23,5.106l-4.728,2.553a7.61,7.61,0,0,0-3.265-3.306,9.147,9.147,0,0,0-3.933-.879A9.437,9.437,0,0,0,118.5,7.408a10.4,10.4,0,0,0-2.8,7.366,9.486,9.486,0,0,0,2.762,7.073,8.587,8.587,0,0,0,6.193,2.386,9.3,9.3,0,0,0,5.483-1.674,7.442,7.442,0,0,0,2.636-4.268h-7.2Z" transform="translate(-29.943 0)" fill="#302d2c"/>
      <path id="Path_329" data-name="Path 329" d="M183.809,14.606c0,8.5-6.11,14.564-14.9,14.564s-14.9-6.069-14.9-14.564S160.121,0,168.91,0s14.9,6.11,14.9,14.606m-5.608,0c0-5.65-3.85-9.668-9.291-9.668s-9.291,4.018-9.291,9.668,3.85,9.626,9.291,9.626,9.291-3.976,9.291-9.626" transform="translate(-41.888 0)" fill="#302d2c"/>
      <path id="Path_330" data-name="Path 330" d="M207.28,12.665,217.533.863H224.4l-11.8,12.89,12.429,15.024h-7.2l-9.918-12.513-.628.628V28.777h-5.44V.863h5.44Z" transform="translate(-54.896 -0.234)" fill="#302d2c"/>
      <path id="Path_331" data-name="Path 331" d="M266.357,14.607c0,8.5-6.11,14.564-14.9,14.564s-14.9-6.069-14.9-14.564S242.67,0,251.458,0s14.9,6.11,14.9,14.606m-5.608,0c0-5.65-3.851-9.667-9.291-9.667s-9.289,4.017-9.289,9.667,3.85,9.626,9.289,9.626,9.291-3.976,9.291-9.626" transform="translate(-64.34 0)" fill="#302d2c"/>
      <path id="Path_337" data-name="Path 337" d="M92.7.695v19a.7.7,0,0,1-1.186.491l-4.492-4.493a.693.693,0,0,1-.2-.491V.695A.694.694,0,0,1,87.517,0h4.492A.7.7,0,0,1,92.7.695" transform="translate(-23.614 0)" fill="#00337f"/>
      <path id="Path_338" data-name="Path 338" d="M5.881,16.77V31.347a.7.7,0,0,1-.695.695H.695A.694.694,0,0,1,0,31.347V12.278a.7.7,0,0,1,1.186-.491l4.492,4.492a.7.7,0,0,1,.2.491" transform="translate(0 -3.15)" fill="#00337f"/>
      <path id="Path_339" data-name="Path 339" d="M58.934,21.014l-7.508,7.495a.694.694,0,0,1-.982,0L30.908,8.922a.7.7,0,0,0-.984,0l-2.87,2.87a.693.693,0,0,1-.981,0L22.894,8.613a.694.694,0,0,1,0-.982L29.924.6a.7.7,0,0,1,.984,0L50.443,20.2a.7.7,0,0,0,.983,0l3.348-3.347a.694.694,0,0,1,.982,0l3.178,3.179a.694.694,0,0,1,0,.982" transform="translate(-6.171 -0.108)" fill="#00337f"/>
      <path id="Path_340" data-name="Path 340" d="M82.364,25.329l-3.179,3.179a.694.694,0,0,1-.982,0L58.616,8.92a.7.7,0,0,0-.982,0l-2.871,2.871a.694.694,0,0,1-.981,0L50.6,8.612a.694.694,0,0,1,0-.982L57.634.6a.694.694,0,0,1,.982,0L82.364,24.347a.694.694,0,0,1,0,.982" transform="translate(-13.708 -0.107)" fill="#006eb2"/>
      <path id="Path_341" data-name="Path 341" d="M32.681,21.035,25.173,28.53a.693.693,0,0,1-.981,0L.537,4.827a.7.7,0,0,1,0-.984L3.716.678a.694.694,0,0,1,.981,0L24.191,20.221a.694.694,0,0,0,.982,0l3.348-3.347a.694.694,0,0,1,.982,0l3.179,3.179a.693.693,0,0,1,0,.982" transform="translate(-0.091 -0.129)" fill="#006eb2"/>
    </g>
  </g>
</svg>
