<svg id="sec02_logo04" xmlns="http://www.w3.org/2000/svg" xmlns:xlink="http://www.w3.org/1999/xlink" width="184.068" height="39.307" viewBox="0 0 184.068 39.307">
  <defs>
    <clipPath id="clip-path">
      <rect id="Rectangle_90" data-name="Rectangle 90" width="184.068" height="39.307" fill="none"/>
    </clipPath>
  </defs>
  <g id="Group_73" data-name="Group 73" transform="translate(0 0)" clip-path="url(#clip-path)">
    <path id="Path_259" data-name="Path 259" d="M92.313,18.788V36.528a.649.649,0,0,1-1.107.459l-4.194-4.195a.647.647,0,0,1-.19-.458V18.788a.648.648,0,0,1,.648-.649h4.194a.649.649,0,0,1,.649.649" transform="translate(-27.803 -5.809)" fill="#00337f"/>
    <path id="Path_260" data-name="Path 260" d="M5.491,34.566V48.177a.649.649,0,0,1-.649.649H.649A.648.648,0,0,1,0,48.177V30.372a.649.649,0,0,1,1.107-.459L5.3,34.107a.653.653,0,0,1,.19.459" transform="translate(0 -9.518)" fill="#00337f"/>
    <path id="Path_261" data-name="Path 261" d="M56.532,37.786l-7.01,7a.648.648,0,0,1-.917,0L30.363,26.5a.65.65,0,0,0-.918,0l-2.68,2.68a.647.647,0,0,1-.916,0L22.88,26.207a.648.648,0,0,1,0-.917l6.565-6.565a.649.649,0,0,1,.918,0l18.24,18.3a.649.649,0,0,0,.918,0L52.648,33.9a.648.648,0,0,1,.917,0l2.967,2.968a.648.648,0,0,1,0,.917" transform="translate(-7.266 -5.936)" fill="#00337f"/>
    <path id="Path_262" data-name="Path 262" d="M80.246,41.816l-2.968,2.968a.648.648,0,0,1-.917,0L58.072,26.494a.649.649,0,0,0-.917,0l-2.68,2.68a.648.648,0,0,1-.916,0l-2.969-2.969a.648.648,0,0,1,0-.917l6.565-6.565a.648.648,0,0,1,.917,0L80.246,40.9a.648.648,0,0,1,0,.917" transform="translate(-16.139 -5.935)" fill="#006eb2"/>
    <path id="Path_263" data-name="Path 263" d="M30.537,37.812l-7.01,7a.648.648,0,0,1-.917,0L.524,22.678a.651.651,0,0,1,0-.918L3.492,18.8a.648.648,0,0,1,.916,0l18.2,18.246a.649.649,0,0,0,.918,0l3.126-3.126a.648.648,0,0,1,.917,0l2.968,2.968a.648.648,0,0,1,0,.917" transform="translate(-0.107 -5.961)" fill="#006eb2"/>
    <path id="Path_264" data-name="Path 264" d="M111.953.87c.314,0,1.706-.068,2.154-.12a2.854,2.854,0,0,0,.516-.09l.583.68c-.15.105-.427.284-.576.411-.531.419-1.264,1.033-1.765,1.428,1-.1,2.214-.179,3.119-.179v.875a11.105,11.105,0,0,0-1.9.014,1.332,1.332,0,0,0-1.249,1.182c0,.584.457.808,1.122.89a6.449,6.449,0,0,0,1.129.015l-.194.971c-1.9.082-3.006-.485-3.006-1.72a1.731,1.731,0,0,1,.538-1.166c-.673.052-1.5.165-2.243.292l-.09-.9c.4-.038.912-.105,1.294-.15a20.9,20.9,0,0,0,2.086-1.683c-.3.023-1.211.067-1.51.1-.187.014-.434.045-.665.067l-.045-.95c.232.022.449.031.7.031" transform="translate(-35.254 -0.211)" fill="#5f5e5e"/>
    <path id="Path_265" data-name="Path 265" d="M124.236,6.144c.284-.037.493-.075.687-.12a2.005,2.005,0,0,0,1.683-1.982,1.834,1.834,0,0,0-1.548-1.96,16.058,16.058,0,0,1-.442,2.012c-.44,1.5-1.084,2.408-1.892,2.408s-1.51-.9-1.51-2.154a3.3,3.3,0,0,1,3.41-3.17,2.826,2.826,0,0,1,2.991,2.894c0,1.555-.957,2.663-2.826,2.947ZM123.659,3.9a11.792,11.792,0,0,0,.4-1.8,2.323,2.323,0,0,0-1.877,2.147c0,.747.3,1.113.576,1.113.307,0,.606-.463.9-1.466" transform="translate(-38.816 -0.377)" fill="#5f5e5e"/>
    <path id="Path_266" data-name="Path 266" d="M138.836,6.036c.224,0,.269-.142.3-1.025a2.452,2.452,0,0,0,.808.359c-.09,1.181-.329,1.5-1.025,1.5h-.86c-.837,0-1.032-.277-1.032-1.121V3.934h-1.092a3.259,3.259,0,0,1-2.266,3.1,2.806,2.806,0,0,0-.553-.785A2.379,2.379,0,0,0,135,3.934h-1.765v-.86H136.1V1.862h-1.287a5.422,5.422,0,0,1-.576,1.018,5.805,5.805,0,0,0-.785-.389A6.223,6.223,0,0,0,134.446.1l.913.179c-.068.232-.142.471-.224.725h.965V0h.9V1.009h2.289v.852H137V3.074h2.871v.86h-1.952V5.752c0,.246.037.284.269.284Z" transform="translate(-42.627 0)" fill="#5f5e5e"/>
    <path id="Path_267" data-name="Path 267" d="M146.677.882a6.279,6.279,0,0,0-.179.659,18.3,18.3,0,0,0-.359,2.714,3.567,3.567,0,0,0,.03.479c.1-.262.224-.508.329-.747l.464.358a17.916,17.916,0,0,0-.531,1.818,2.174,2.174,0,0,0-.045.344c.007.082.007.2.015.307l-.853.06a9.49,9.49,0,0,1-.291-2.423,20.542,20.542,0,0,1,.307-2.931,5.556,5.556,0,0,0,.074-.726Zm1.735,3.657a2.438,2.438,0,0,0-.089.621c0,.329.283.524,1.031.524a8.541,8.541,0,0,0,1.855-.2l.022,1a10.355,10.355,0,0,1-1.915.15c-1.278,0-1.884-.464-1.884-1.22a4.557,4.557,0,0,1,.127-.964ZM151,1.368v.957a20.5,20.5,0,0,1-3.179,0l-.007-.957a15.07,15.07,0,0,0,3.186,0" transform="translate(-46.515 -0.254)" fill="#5f5e5e"/>
    <path id="Path_268" data-name="Path 268" d="M160.885,2.384a3.833,3.833,0,0,0-.135.382,1.912,1.912,0,0,1,1.428,1.817c0,1.039-.621,2.064-2.438,2.334l-.494-.778c1.428-.158,2.012-.875,2.012-1.6A1.1,1.1,0,0,0,160.5,3.5a5.766,5.766,0,0,1-1.563,2.243c.052.2.112.374.172.553l-.852.255c-.03-.09-.067-.2-.1-.3a2.615,2.615,0,0,1-1.144.3.963.963,0,0,1-1-1.085,2.989,2.989,0,0,1,1.818-2.431c.022-.313.045-.628.075-.927h-.239c-.389,0-.965-.031-1.309-.045l-.03-.861a12,12,0,0,0,1.368.1h.284l.045-.4a3.05,3.05,0,0,0,.022-.441l.972.022a2.879,2.879,0,0,0-.1.4c-.03.12-.052.254-.075.4a12.35,12.35,0,0,0,2.512-.314l.007.852a21.493,21.493,0,0,1-2.632.27c-.022.216-.045.44-.052.665a4.984,4.984,0,0,1,1.107-.134h.127a4.344,4.344,0,0,0,.067-.441Zm-2.917,3.022a10.43,10.43,0,0,1-.158-1.481,1.938,1.938,0,0,0-.927,1.362c0,.231.1.358.344.358a1.58,1.58,0,0,0,.74-.239m.673-1.855a8.645,8.645,0,0,0,.082,1.227,4.25,4.25,0,0,0,.935-1.406,3.59,3.59,0,0,0-1.017.165Z" transform="translate(-49.958 -0.148)" fill="#5f5e5e"/>
    <path id="Path_269" data-name="Path 269" d="M172.051,1.461q-.27.169-.517.336c-.4.277-1.173.935-1.638,1.309a2.515,2.515,0,0,1,.7-.082,2.009,2.009,0,0,1,2.213,1.863c0,1.166-.889,2.094-2.677,2.094-1.032,0-1.81-.472-1.81-1.212a1.244,1.244,0,0,1,1.331-1.152,1.491,1.491,0,0,1,1.578,1.264,1.079,1.079,0,0,0,.606-1.009c0-.665-.674-1.115-1.534-1.115a3.467,3.467,0,0,0-2.669,1.5l-.673-.695c.523-.426,1.413-1.181,1.854-1.541.411-.344,1.181-.965,1.549-1.286-.382.007-1.4.053-1.788.082a5.163,5.163,0,0,0-.606.06l-.031-.964c.21.022.464.037.673.037.389,0,1.975-.037,2.393-.075A3.514,3.514,0,0,0,171.572.8ZM170.375,6.12c-.045-.478-.322-.793-.725-.793-.277,0-.456.165-.456.352,0,.276.314.463.748.463a3.9,3.9,0,0,0,.434-.022" transform="translate(-53.465 -0.257)" fill="#5f5e5e"/>
    <path id="Path_270" data-name="Path 270" d="M180.693,8.982a14.1,14.1,0,0,0-1.608-1.653l.777-.673a13.97,13.97,0,0,1,1.631,1.638Z" transform="translate(-57.348 -2.132)" fill="#5f5e5e"/>
    <path id="Path_271" data-name="Path 271" d="M188.605,3.018A4.311,4.311,0,0,1,187.76,4.1a3.144,3.144,0,0,0-.568-.613,4.46,4.46,0,0,0,1.271-1.667h-1.084V1.066h1.226V.012h.845V1.066h1.055v.755H189.45V2.1c.3.173,1.009.681,1.181.823l-.463.71c-.172-.187-.449-.457-.719-.7V4.492h-.845Zm-1.361,3.155a5.111,5.111,0,0,0,.651-1.54l.793.313a7.3,7.3,0,0,1-.628,1.631Zm4.27-.12c.351,0,.4-.1.449-.86a2.173,2.173,0,0,0,.8.315c-.112,1.069-.359,1.331-1.181,1.331h-1.347c-1.017,0-1.271-.247-1.271-1.024V4.79h.875V5.8c0,.224.075.254.479.254ZM190.647,4.2l.15.135V.378h3.036V4.4h-2.961c.292.269.613.583.793.793l-.643.539a10.9,10.9,0,0,0-.988-1.04Zm.957-2.684h1.376V1.081H191.6Zm0,1.091h1.376V2.172H191.6Zm0,1.1h1.376V3.257H191.6Zm1.727.831c.3.464.733,1.1.935,1.488l-.83.426c-.179-.4-.591-1.054-.882-1.555Z" transform="translate(-59.945 -0.004)" fill="#5f5e5e"/>
    <path id="Path_272" data-name="Path 272" d="M201.181,2.375c-.008.479,0,1.039.044,1.57.1,1.07.329,1.8.793,1.8.352,0,.643-.867.785-1.451l.748.9c-.494,1.287-.957,1.744-1.555,1.744-.808,0-1.519-.733-1.728-2.722-.067-.68-.082-1.541-.082-2a4.3,4.3,0,0,0-.052-.748l1.137.015a5.859,5.859,0,0,0-.089.9m5.145,3.044-.979.374a7.5,7.5,0,0,0-1.317-3.844l.942-.313a8.068,8.068,0,0,1,1.353,3.784" transform="translate(-64.089 -0.469)" fill="#5f5e5e"/>
    <path id="Path_273" data-name="Path 273" d="M215.036,5.388c.015-.217.022-.561.03-.883-.546.3-.845.591-.845.957,0,.412.351.524,1.077.524a11.327,11.327,0,0,0,2.1-.217l-.03.965a20.512,20.512,0,0,1-2.094.12c-1.16,0-2.035-.277-2.035-1.234s.9-1.541,1.743-1.974a.578.578,0,0,0-.516-.255,1.83,1.83,0,0,0-1.159.509,9.48,9.48,0,0,0-.689.815l-.793-.591a7.254,7.254,0,0,0,1.631-2.035h-.09c-.3,0-.845-.015-1.249-.052V1.17a9.494,9.494,0,0,0,1.3.082h.358a4.093,4.093,0,0,0,.15-.845l.972.082c-.037.179-.09.434-.179.733a17.22,17.22,0,0,0,2.094-.217l-.007.867c-.71.1-1.623.165-2.415.194a4.524,4.524,0,0,1-.426.748,2.317,2.317,0,0,1,.837-.15,1.009,1.009,0,0,1,.987.576c.381-.179.7-.307,1-.441.284-.127.546-.254.814-.381l.375.859a7.814,7.814,0,0,0-.883.314c-.328.128-.747.292-1.2.5.007.411.022.957.03,1.294Z" transform="translate(-67.833 -0.13)" fill="#5f5e5e"/>
    <path id="Path_274" data-name="Path 274" d="M228.408,2.1a3.348,3.348,0,0,0-.052.4,15.433,15.433,0,0,1-.442,3.657.921.921,0,0,1-.965.576c-.426,0-.876-.03-1.242-.06l-.112-1a6.2,6.2,0,0,0,1.048.1.4.4,0,0,0,.426-.261,10.213,10.213,0,0,0,.314-2.774H225.7a5.435,5.435,0,0,1-2.326,4.1l-.868-.7a4.3,4.3,0,0,0,.98-.733,4.4,4.4,0,0,0,1.233-2.662h-.987c-.254,0-.665,0-.987.029v-.98c.314.031.7.053.987.053H224.8c.008-.209.016-.426.016-.651A5.532,5.532,0,0,0,224.767.5h1.1c-.022.171-.037.485-.046.665-.007.232-.014.456-.03.673H227.2a3.587,3.587,0,0,0,.569-.053Z" transform="translate(-71.254 -0.159)" fill="#5f5e5e"/>
    <path id="Path_275" data-name="Path 275" d="M239.357,1.595a3.551,3.551,0,0,0-.247.531,8.6,8.6,0,0,1-1.032,2.05c.276.172.53.345.718.479l-.68.875c-.179-.156-.419-.336-.7-.531A7.14,7.14,0,0,1,234.66,6.86l-.868-.755a6.323,6.323,0,0,0,2.79-1.676c-.508-.329-1.017-.636-1.4-.852l.636-.71c.4.2.905.486,1.406.784A5.447,5.447,0,0,0,238,2.059h-2.146a8.832,8.832,0,0,1-1.975,1.929l-.808-.621A6.848,6.848,0,0,0,235.461.884,3.332,3.332,0,0,0,235.8.1l1.084.336c-.179.262-.373.606-.463.763l-.008.007h1.534a2.376,2.376,0,0,0,.651-.082Z" transform="translate(-74.638 -0.032)" fill="#5f5e5e"/>
    <path id="Path_276" data-name="Path 276" d="M249.564,2.984c.157,0,.516-.031.68-.045V3.9c-.2-.016-.456-.03-.658-.03H247.65a3.746,3.746,0,0,1-1.915,3.073l-.95-.642a2.96,2.96,0,0,0,1.877-2.431h-2.056c-.232,0-.508.014-.7.03V2.939a6.51,6.51,0,0,0,.688.045H246.7V1.922c-.718.059-1.5.082-2,.1l-.232-.867a17.656,17.656,0,0,0,2.55-.12A8.069,8.069,0,0,0,248.9.583l.613.823c-.254.06-.449.113-.576.142a12.248,12.248,0,0,1-1.256.247v1.19Z" transform="translate(-78.105 -0.187)" fill="#5f5e5e"/>
    <path id="Path_277" data-name="Path 277" d="M256.566.882a6.271,6.271,0,0,0-.179.659,18.293,18.293,0,0,0-.359,2.714,3.567,3.567,0,0,0,.03.479c.1-.262.224-.508.329-.747l.464.358a17.911,17.911,0,0,0-.531,1.818,2.169,2.169,0,0,0-.045.344c.007.082.007.2.015.307l-.853.06a9.491,9.491,0,0,1-.291-2.423,20.54,20.54,0,0,1,.307-2.931,5.558,5.558,0,0,0,.074-.726ZM258.3,4.539a2.438,2.438,0,0,0-.089.621c0,.329.283.524,1.031.524a8.541,8.541,0,0,0,1.855-.2l.022,1a10.355,10.355,0,0,1-1.915.15c-1.278,0-1.884-.464-1.884-1.22a4.558,4.558,0,0,1,.127-.964Zm2.588-3.171v.957a20.5,20.5,0,0,1-3.179,0l-.007-.957a15.07,15.07,0,0,0,3.186,0" transform="translate(-81.705 -0.254)" fill="#5f5e5e"/>
    <path id="Path_278" data-name="Path 278" d="M269.642,7.8a1.208,1.208,0,1,1-1.211-1.211A1.211,1.211,0,0,1,269.642,7.8m-.539,0a.669.669,0,1,0-.672.665A.67.67,0,0,0,269.1,7.8" transform="translate(-85.574 -2.11)" fill="#5f5e5e"/>
    <path id="Path_279" data-name="Path 279" d="M177.811,22.629H162.663V28.6h14.748V33.09H162.663v7.3h15.149v4.49h-20.36V18.139h20.36Z" transform="translate(-50.421 -5.809)" fill="#302d2c"/>
    <path id="Path_280" data-name="Path 280" d="M218.479,22.629H203.331V28.6h14.748V33.09H203.331v7.3h15.149v4.49H198.12V18.139h20.36Z" transform="translate(-63.444 -5.809)" fill="#302d2c"/>
    <path id="Path_281" data-name="Path 281" d="M110.091,45.229V18.493H113.7l16.274,17.838V18.493h5.21V45.229h-3.607L115.3,27.352V45.229Z" transform="translate(-35.255 -5.922)" fill="#302d2c"/>
    <path id="Path_282" data-name="Path 282" d="M245.322,18.494c3.728,0,6.975.4,9.941,2.606a13.234,13.234,0,0,1,5.131,10.783,12.747,12.747,0,0,1-5.372,10.783c-3.126,2.2-6.053,2.565-9.78,2.565h-6.895V18.494Zm-1.763,22.247h1.6a11.191,11.191,0,0,0,6.534-1.763,8.7,8.7,0,0,0,3.326-7.095,8.908,8.908,0,0,0-3.287-7.136,10.878,10.878,0,0,0-6.573-1.764h-1.6Z" transform="translate(-76.326 -5.922)" fill="#302d2c"/>
  </g>
</svg>
